<svg width="200" height="200" viewBox="0 0 200 200" fill="none" xmlns="http://www.w3.org/2000/svg">
<rect width="200" height="200" fill="white"/>
<g opacity="0.8">
<path fill-rule="evenodd" clip-rule="evenodd" d="M144.107 124.32C133.651 124.141 123.698 129.467 118.775 138.988C111.719 152.633 117.666 169.726 132.057 177.167C146.447 184.608 163.833 179.58 170.888 165.935C175.626 156.773 174.5 146.055 168.892 137.749C171.191 132.58 173.543 128.157 175.328 125.178L149.079 111.605C151.753 112.988 149.062 118.056 144.107 124.32Z" fill="#C4C4C4" fill-opacity="0.8"/>
<path d="M144.107 124.32L144.499 124.63L144.346 124.824L144.098 124.82L144.107 124.32ZM168.892 137.749L168.478 138.029L168.323 137.799L168.436 137.546L168.892 137.749ZM175.328 125.178L175.558 124.734L176.031 124.979L175.757 125.436L175.328 125.178ZM144.098 124.82C133.814 124.644 124.047 129.881 119.219 139.218L118.331 138.759C123.349 129.053 133.488 123.638 144.115 123.82L144.098 124.82ZM119.219 139.218C112.302 152.595 118.118 169.397 132.286 176.723L131.827 177.611C117.214 170.055 111.137 152.67 118.331 138.759L119.219 139.218ZM132.286 176.723C146.454 184.049 163.527 179.083 170.444 165.705L171.332 166.165C164.139 180.077 146.44 185.168 131.827 177.611L132.286 176.723ZM170.444 165.705C175.09 156.72 173.993 146.197 168.478 138.029L169.307 137.469C175.008 145.913 176.161 156.825 171.332 166.165L170.444 165.705ZM168.436 137.546C170.742 132.36 173.103 127.918 174.9 124.921L175.757 125.436C173.983 128.395 171.64 132.801 169.349 137.952L168.436 137.546ZM175.099 125.623L148.849 112.049L149.309 111.161L175.558 124.734L175.099 125.623ZM149.309 111.161C150.153 111.598 150.57 112.344 150.626 113.264C150.679 114.147 150.404 115.192 149.913 116.33C148.928 118.616 146.982 121.491 144.499 124.63L143.715 124.01C146.187 120.885 148.064 118.094 148.995 115.934C149.462 114.85 149.667 113.977 149.628 113.325C149.591 112.71 149.342 112.304 148.849 112.049L149.309 111.161Z" fill="white"/>
<path d="M150.611 111.908C150.582 111.965 150.477 112.247 150.804 112.967C151.122 113.667 151.754 114.55 152.73 115.553C154.671 117.548 157.735 119.774 161.469 121.705C165.203 123.636 168.79 124.849 171.54 125.28C172.924 125.497 174.009 125.502 174.764 125.356C175.54 125.207 175.711 124.958 175.74 124.902C175.769 124.846 175.873 124.563 175.547 123.843C175.229 123.143 174.597 122.26 173.621 121.257C171.679 119.262 168.616 117.036 164.882 115.105C161.147 113.174 157.56 111.961 154.81 111.53C153.427 111.314 152.341 111.308 151.586 111.454C150.81 111.603 150.64 111.852 150.611 111.908Z" fill="#C4C4C4" stroke="#E5E5E5" stroke-width="3"/>
<path d="M191.048 126.947L191.507 126.059L192.396 126.518L191.936 127.406L191.048 126.947ZM138.935 100L138.047 99.5407L138.506 98.6524L139.394 99.1117L138.935 100ZM106 163.694L105.541 164.582L104.652 164.123L105.112 163.235L106 163.694ZM158.113 190.641L159.001 191.1L158.542 191.988L157.654 191.529L158.113 190.641ZM190.589 127.835L138.476 100.888L139.394 99.1117L191.507 126.059L190.589 127.835ZM139.823 100.459L106.888 164.153L105.112 163.235L138.047 99.5407L139.823 100.459ZM106.459 162.806L158.572 189.752L157.654 191.529L105.541 164.582L106.459 162.806ZM157.225 190.181L190.16 126.487L191.936 127.406L159.001 191.1L157.225 190.181Z" fill="white"/>
</g>
<circle cx="173.5" cy="110.5" r="6" stroke="#E5E5E5"/>
<circle cx="163" cy="99" r="4.5" stroke="#E5E5E5"/>
<circle cx="173.5" cy="96.5" r="2" stroke="#E5E5E5"/>
<circle cx="167.5" cy="88.5" r="2" stroke="#E5E5E5"/>
<circle cx="177.5" cy="87.5" r="2" stroke="#E5E5E5"/>
<circle cx="172.5" cy="71.5" r="2" stroke="#E5E5E5"/>
<circle cx="181.5" cy="76.5" r="2" stroke="#E5E5E5"/>
<circle cx="178.5" cy="68.5" r="1" stroke="#E5E5E5"/>
<circle cx="173.5" cy="80.5" r="3" stroke="#E5E5E5"/>
<circle cx="161.5" cy="111.5" r="3" stroke="#E5E5E5"/>
<g opacity="0.8">
<path fill-rule="evenodd" clip-rule="evenodd" d="M54.9413 41.3202C65.397 41.1413 75.3501 46.4672 80.2733 55.9883C87.3286 69.6328 81.3821 86.7261 66.9915 94.1672C52.6008 101.608 35.2155 96.5796 28.1602 82.9351C23.4224 73.7726 24.5476 63.055 30.1556 54.7492C27.8574 49.5804 25.5052 45.1568 23.7196 42.1785L49.9692 28.6053C47.2951 29.988 49.9862 35.0561 54.9413 41.3202Z" fill="#C4C4C4" fill-opacity="0.8"/>
<path d="M54.9413 41.3202L54.5491 41.6304L54.7026 41.8243L54.9498 41.8201L54.9413 41.3202ZM30.1556 54.7492L30.57 55.029L30.7251 54.7993L30.6125 54.5461L30.1556 54.7492ZM23.7196 42.1785L23.49 41.7343L23.017 41.9789L23.2908 42.4356L23.7196 42.1785ZM54.9498 41.8201C65.2336 41.6442 75.0013 46.8812 79.8292 56.218L80.7174 55.7587C75.6989 46.0533 65.5603 40.6385 54.9327 40.8202L54.9498 41.8201ZM79.8292 56.218C86.7463 69.5952 80.9298 86.3971 66.7618 93.7231L67.2211 94.6113C81.8345 87.055 87.911 69.6704 80.7174 55.7587L79.8292 56.218ZM66.7618 93.7231C52.5939 101.049 35.5214 96.0826 28.6043 82.7055L27.716 83.1648C34.9095 97.0765 52.6078 102.168 67.2211 94.6113L66.7618 93.7231ZM28.6043 82.7055C23.9581 73.7201 25.0547 63.1974 30.57 55.029L29.7413 54.4694C24.0404 62.9126 22.8867 73.8251 27.716 83.1648L28.6043 82.7055ZM30.6125 54.5461C28.3065 49.36 25.9451 44.9182 24.1485 41.9214L23.2908 42.4356C25.0653 45.3954 27.4082 49.8009 29.6988 54.9524L30.6125 54.5461ZM23.9493 42.6226L50.1989 29.0494L49.7396 28.1612L23.49 41.7343L23.9493 42.6226ZM49.7396 28.1612C48.8951 28.5978 48.4776 29.3441 48.422 30.2643C48.3687 31.1471 48.6445 32.1916 49.1351 33.3301C50.1201 35.6159 52.066 38.4913 54.5491 41.6304L55.3334 41.01C52.8614 37.885 50.9842 35.0942 50.0535 32.9343C49.5862 31.85 49.3809 30.9767 49.4202 30.3246C49.4573 29.7099 49.7063 29.3041 50.1989 29.0494L49.7396 28.1612Z" fill="white"/>
<path d="M48.4372 28.9082C48.4664 28.9646 48.5707 29.2474 48.244 29.967C47.9263 30.667 47.2946 31.5499 46.3181 32.5533C44.3767 34.5481 41.3132 36.7741 37.5791 38.7049C33.845 40.6358 30.2577 41.8488 27.5077 42.2798C26.1245 42.4966 25.0389 42.5017 24.284 42.3563C23.508 42.2069 23.3375 41.9583 23.3084 41.9019C23.2792 41.8456 23.1749 41.5628 23.5015 40.8431C23.8193 40.1431 24.451 39.2602 25.4275 38.2569C27.3689 36.262 30.4323 34.0361 34.1665 32.1052C37.9006 30.1743 41.4879 28.9614 44.2379 28.5303C45.6211 28.3135 46.7067 28.3085 47.4616 28.4538C48.2376 28.6032 48.4081 28.8519 48.4372 28.9082Z" fill="#C4C4C4" stroke="#E5E5E5" stroke-width="3"/>
<path d="M8 43.9468L7.54069 43.0585L6.65241 43.5178L7.11172 44.4061L8 43.9468ZM60.1131 17L61.0014 16.5407L60.5421 15.6524L59.6538 16.1117L60.1131 17ZM93.0481 80.6938L93.5074 81.5821L94.3957 81.1228L93.9364 80.2345L93.0481 80.6938ZM40.935 107.641L40.0467 108.1L40.506 108.988L41.3943 108.529L40.935 107.641ZM8.45931 44.8351L60.5725 17.8883L59.6538 16.1117L7.54069 43.0585L8.45931 44.8351ZM59.2249 17.4593L92.1598 81.1532L93.9364 80.2345L61.0014 16.5407L59.2249 17.4593ZM92.5888 79.8056L40.4756 106.752L41.3943 108.529L93.5074 81.5821L92.5888 79.8056ZM41.8232 107.181L8.88828 43.4875L7.11172 44.4061L40.0467 108.1L41.8232 107.181Z" fill="white"/>
</g>
<g opacity="0.9">
<path fill-rule="evenodd" clip-rule="evenodd" d="M42.7822 25.2096C42.7012 27.903 39.3636 31.5802 34.44 34.1109C29.9862 36.4002 25.5248 37.0882 23.0579 36.0869L26 40.5C31.6667 39.8333 44 33.5 46 29.5L42.7822 25.2096Z" fill="#9C7E62"/>
<path d="M42.7822 25.2096L43.1822 24.9096L42.3253 23.7671L42.2824 25.1946L42.7822 25.2096ZM34.44 34.1109L34.2114 33.6662L34.2114 33.6662L34.44 34.1109ZM23.0579 36.0869L23.246 35.6236L21.7409 35.0127L22.6419 36.3643L23.0579 36.0869ZM26 40.5L25.584 40.7774L25.754 41.0324L26.0584 40.9966L26 40.5ZM46 29.5L46.4472 29.7236L46.5854 29.4472L46.4 29.2L46 29.5ZM42.2824 25.1946C42.2473 26.3614 41.49 27.8417 40.0607 29.381C38.6459 30.9046 36.6296 32.4233 34.2114 33.6662L34.6686 34.5556C37.174 33.2678 39.2882 31.6825 40.7935 30.0615C42.2841 28.4562 43.2361 26.7512 43.2819 25.2246L42.2824 25.1946ZM34.2114 33.6662C32.0246 34.7902 29.8447 35.5163 27.9209 35.8398C25.9857 36.1652 24.3587 36.0753 23.246 35.6236L22.8699 36.5502C24.224 37.0998 26.0611 37.1666 28.0867 36.826C30.1238 36.4834 32.4015 35.7209 34.6686 34.5556L34.2114 33.6662ZM26.416 40.2227L23.4739 35.8096L22.6419 36.3643L25.584 40.7774L26.416 40.2227ZM45.5528 29.2764C45.1067 30.1685 44.0399 31.2567 42.5244 32.4153C41.0253 33.5614 39.1431 34.7348 37.1387 35.8093C33.1133 37.9673 28.6801 39.6812 25.9416 40.0034L26.0584 40.9966C28.9865 40.6521 33.5533 38.8661 37.6112 36.6907C39.6485 35.5985 41.5789 34.3969 43.1318 33.2097C44.6684 32.035 45.8933 30.8315 46.4472 29.7236L45.5528 29.2764ZM42.3822 25.5096L45.6 29.8L46.4 29.2L43.1822 24.9096L42.3822 25.5096Z" fill="#9C7E62"/>
</g>
<ellipse cx="31.9491" cy="29.2647" rx="11.8529" ry="5.44888" transform="rotate(-27.2033 31.9491 29.2647)" fill="#B89575" fill-opacity="0.9"/>
</svg>
