<svg width="1800" height="1800" viewBox="0 0 1800 1800" fill="none" xmlns="http://www.w3.org/2000/svg">
<g clip-path="url(#clip0)">
<g opacity="0.8">
<path opacity="0.8" fill-rule="evenodd" clip-rule="evenodd" d="M1138.09 950.412C1289.36 1025.38 1392.61 1175.56 1392.61 1348.6C1392.61 1596.58 1180.57 1797.61 919 1797.61C657.43 1797.61 445.386 1596.58 445.386 1348.6C445.386 1182.08 541.004 1036.72 683.028 959.198C688.399 868.034 687.468 787.156 683.947 731.206H1161.07C1112.46 731.206 1113.48 823.839 1138.09 950.412Z" fill="#C4C4C4" fill-opacity="0.8"/>
<path opacity="0.8" d="M1138.09 950.412L1136.91 950.639L1137.03 951.219L1137.56 951.482L1138.09 950.412ZM683.028 959.198L683.601 960.246L684.18 959.931L684.219 959.27L683.028 959.198ZM683.947 731.206V730.013H682.677L682.756 731.281L683.947 731.206ZM1137.56 951.482C1288.47 1026.27 1391.42 1176.05 1391.42 1348.6H1393.81C1393.81 1175.06 1290.26 1024.49 1138.62 949.343L1137.56 951.482ZM1391.42 1348.6C1391.42 1595.86 1179.97 1796.42 919 1796.42V1798.81C1181.17 1798.81 1393.81 1597.3 1393.81 1348.6H1391.42ZM919 1796.42C658.028 1796.42 446.579 1595.86 446.579 1348.6H444.193C444.193 1597.3 656.833 1798.81 919 1798.81V1796.42ZM446.579 1348.6C446.579 1182.55 541.923 1037.58 683.601 960.246L682.458 958.153C540.086 1035.87 444.193 1181.6 444.193 1348.6H446.579ZM684.219 959.27C689.592 868.06 688.664 787.133 685.137 731.131L682.756 731.281C686.275 787.18 687.204 868.009 681.837 959.129L684.219 959.27ZM683.947 732.4H1161.07V730.013H683.947V732.4ZM1161.07 730.013C1148.45 730.013 1139.03 736.07 1132.49 747.046C1125.99 757.945 1122.31 773.7 1120.93 793.26C1118.17 832.403 1124.61 887.331 1136.91 950.639L1139.26 950.183C1126.96 886.918 1120.58 832.244 1123.31 793.428C1124.68 774.008 1128.32 758.694 1134.54 748.269C1140.7 737.921 1149.39 732.4 1161.07 732.4V730.013Z" fill="white"/>
<path opacity="0.8" d="M1157.49 724.19C1157.49 734.247 1151.38 744.397 1139.01 754.148C1126.67 763.867 1108.6 772.777 1085.96 780.325C1040.7 795.409 977.95 804.8 908.475 804.8C839.001 804.8 776.252 795.409 730.995 780.325C708.348 772.777 690.279 763.867 677.946 754.148C665.572 744.397 659.46 734.247 659.46 724.19C659.46 714.134 665.572 703.983 677.946 694.232C690.279 684.513 708.348 675.604 730.995 668.055C776.252 652.971 839.001 643.58 908.475 643.58C977.95 643.58 1040.7 652.971 1085.96 668.055C1108.6 675.604 1126.67 684.513 1139.01 694.232C1151.38 703.983 1157.49 714.134 1157.49 724.19Z" fill="#C4C4C4" stroke="#E5E5E5" stroke-width="3"/>
<path opacity="0.8" d="M1134 718C1134 726.982 1128.51 736.049 1117.41 744.758C1106.34 753.439 1090.12 761.397 1069.79 768.139C1029.17 781.612 972.856 790 910.5 790C848.144 790 791.825 781.612 751.206 768.139C730.879 761.397 714.661 753.439 703.592 744.758C692.485 736.049 687 726.982 687 718C687 709.018 692.485 699.951 703.592 691.242C714.661 682.561 730.879 674.603 751.206 667.861C791.825 654.388 848.144 646 910.5 646C972.856 646 1029.17 654.388 1069.79 667.861C1090.12 674.603 1106.34 682.561 1117.41 691.242C1128.51 699.951 1134 709.018 1134 718Z" fill="#C4C4C4" stroke="#E5E5E5" stroke-width="3"/>
<path opacity="0.8" d="M445.386 640V637.613H443V640H445.386ZM1392.61 640H1395V637.613H1392.61V640ZM1392.61 1797.61V1800H1395V1797.61H1392.61ZM445.386 1797.61H443V1800H445.386V1797.61ZM445.386 642.387H1392.61V637.613H445.386V642.387ZM1390.23 640V1797.61H1395V640H1390.23ZM1392.61 1795.23H445.386V1800H1392.61V1795.23ZM447.772 1797.61V640H443V1797.61H447.772Z" fill="white"/>
</g>
<path d="M915.2 1452.7C902.6 1452.7 890.933 1449.9 880.2 1444.3C869.467 1438.7 864.1 1428.43 864.1 1413.5C864.1 1395.3 868.067 1378.27 876 1362.4C883.933 1346.07 896.067 1325.77 912.4 1301.5C929.2 1276.3 941.8 1255.07 950.2 1237.8C959.067 1220.53 963.5 1201.87 963.5 1181.8C963.5 1158.93 957.433 1141.43 945.3 1129.3C933.633 1117.17 917.767 1111.1 897.7 1111.1C860.367 1111.1 836.333 1119.97 825.6 1137.7C819.533 1134.9 816.5 1130.23 816.5 1123.7C816.5 1117.63 820 1111.1 827 1104.1C834 1097.1 843.567 1091.27 855.7 1086.6C868.3 1081.93 882.533 1079.6 898.4 1079.6C932.467 1079.6 958.367 1089.17 976.1 1108.3C994.3 1127.43 1003.4 1155.9 1003.4 1193.7C1003.4 1212.37 998.967 1229.87 990.1 1246.2C981.7 1262.07 968.633 1281.9 950.9 1305.7C935.033 1326.7 923.133 1344.2 915.2 1358.2C907.733 1371.73 904 1385.73 904 1400.2C904 1405.8 906.333 1410 911 1412.8C916.133 1415.6 922.9 1417 931.3 1417L943.2 1416.3C947.4 1416.3 950.433 1417.93 952.3 1421.2C954.167 1424 955.1 1429.13 955.1 1436.6C955.1 1441.73 950.9 1445.7 942.5 1448.5C934.567 1451.3 925.467 1452.7 915.2 1452.7ZM906.8 1578C898.4 1578 891.867 1575.67 887.2 1571C882.533 1566.33 880.2 1560.03 880.2 1552.1C880.2 1543.7 882.533 1537.17 887.2 1532.5C892.333 1527.83 898.867 1525.5 906.8 1525.5C913.8 1525.5 918.933 1528.53 922.2 1534.6C925.467 1540.2 927.1 1546.97 927.1 1554.9C927.1 1560.5 925.233 1565.87 921.5 1571C917.767 1575.67 912.867 1578 906.8 1578Z" fill="black"/>
<path d="M967.596 760.98C1027.37 760.98 1075.83 712.519 1075.83 652.74C1075.83 592.961 1027.37 544.5 967.596 544.5C907.822 544.5 859.365 592.961 859.365 652.74C859.365 712.519 907.822 760.98 967.596 760.98Z" fill="#F8F8F8" fill-opacity="0.6"/>
<path d="M967.596 760.98C1027.37 760.98 1075.83 712.519 1075.83 652.74C1075.83 592.961 1027.37 544.5 967.596 544.5C907.822 544.5 859.365 592.961 859.365 652.74C859.365 712.519 907.822 760.98 967.596 760.98Z" stroke="#E5E5E5" stroke-width="5"/>
<path d="M967.596 760.98C1027.37 760.98 1075.83 712.519 1075.83 652.74C1075.83 592.961 1027.37 544.5 967.596 544.5C907.822 544.5 859.365 592.961 859.365 652.74C859.365 712.519 907.822 760.98 967.596 760.98Z" stroke="url(#paint0_linear)" stroke-width="5"/>
<path d="M778.192 526.46C823.023 526.46 859.365 490.115 859.365 445.28C859.365 400.446 823.023 364.1 778.192 364.1C733.362 364.1 697.019 400.446 697.019 445.28C697.019 490.115 733.362 526.46 778.192 526.46Z" fill="#F8F8F8" fill-opacity="0.6"/>
<path d="M778.192 526.46C823.023 526.46 859.365 490.115 859.365 445.28C859.365 400.446 823.023 364.1 778.192 364.1C733.362 364.1 697.019 400.446 697.019 445.28C697.019 490.115 733.362 526.46 778.192 526.46Z" stroke="#E5E5E5" stroke-width="5"/>
<path d="M778.192 526.46C823.023 526.46 859.365 490.115 859.365 445.28C859.365 400.446 823.023 364.1 778.192 364.1C733.362 364.1 697.019 400.446 697.019 445.28C697.019 490.115 733.362 526.46 778.192 526.46Z" stroke="url(#paint1_linear)" stroke-width="5"/>
<path d="M967.596 436.26C987.521 436.26 1003.67 420.107 1003.67 400.18C1003.67 380.254 987.521 364.1 967.596 364.1C947.671 364.1 931.519 380.254 931.519 400.18C931.519 420.107 947.671 436.26 967.596 436.26Z" fill="#F8F8F8" fill-opacity="0.6"/>
<path d="M967.596 436.26C987.521 436.26 1003.67 420.107 1003.67 400.18C1003.67 380.254 987.521 364.1 967.596 364.1C947.671 364.1 931.519 380.254 931.519 400.18C931.519 420.107 947.671 436.26 967.596 436.26Z" stroke="#E5E5E5" stroke-width="5"/>
<path d="M967.596 436.26C987.521 436.26 1003.67 420.107 1003.67 400.18C1003.67 380.254 987.521 364.1 967.596 364.1C947.671 364.1 931.519 380.254 931.519 400.18C931.519 420.107 947.671 436.26 967.596 436.26Z" stroke="url(#paint2_linear)" stroke-width="5"/>
<path d="M859.365 291.94C879.29 291.94 895.442 275.786 895.442 255.86C895.442 235.934 879.29 219.78 859.365 219.78C839.441 219.78 823.288 235.934 823.288 255.86C823.288 275.786 839.441 291.94 859.365 291.94Z" fill="#F8F8F8" fill-opacity="0.6"/>
<path d="M859.365 291.94C879.29 291.94 895.442 275.786 895.442 255.86C895.442 235.934 879.29 219.78 859.365 219.78C839.441 219.78 823.288 235.934 823.288 255.86C823.288 275.786 839.441 291.94 859.365 291.94Z" stroke="#E5E5E5" stroke-width="5"/>
<path d="M859.365 291.94C879.29 291.94 895.442 275.786 895.442 255.86C895.442 235.934 879.29 219.78 859.365 219.78C839.441 219.78 823.288 235.934 823.288 255.86C823.288 275.786 839.441 291.94 859.365 291.94Z" stroke="url(#paint3_linear)" stroke-width="5"/>
<path d="M1039.75 273.9C1059.67 273.9 1075.83 257.746 1075.83 237.82C1075.83 217.894 1059.67 201.74 1039.75 201.74C1019.83 201.74 1003.67 217.894 1003.67 237.82C1003.67 257.746 1019.83 273.9 1039.75 273.9Z" fill="#F8F8F8" fill-opacity="0.6"/>
<path d="M1039.75 273.9C1059.67 273.9 1075.83 257.746 1075.83 237.82C1075.83 217.894 1059.67 201.74 1039.75 201.74C1019.83 201.74 1003.67 217.894 1003.67 237.82C1003.67 257.746 1019.83 273.9 1039.75 273.9Z" stroke="#E5E5E5" stroke-width="5"/>
<path d="M1039.75 273.9C1059.67 273.9 1075.83 257.746 1075.83 237.82C1075.83 217.894 1059.67 201.74 1039.75 201.74C1019.83 201.74 1003.67 217.894 1003.67 237.82C1003.67 257.746 1019.83 273.9 1039.75 273.9Z" stroke="url(#paint4_linear)" stroke-width="5"/>
<path d="M1111.9 75.4601C1131.83 75.4601 1147.98 59.3065 1147.98 39.3801C1147.98 19.4536 1131.83 3.30005 1111.9 3.30005C1091.98 3.30005 1075.83 19.4536 1075.83 39.3801C1075.83 59.3065 1091.98 75.4601 1111.9 75.4601Z" fill="#F8F8F8" fill-opacity="0.6"/>
<path d="M1111.9 75.4601C1131.83 75.4601 1147.98 59.3065 1147.98 39.3801C1147.98 19.4536 1131.83 3.30005 1111.9 3.30005C1091.98 3.30005 1075.83 19.4536 1075.83 39.3801C1075.83 59.3065 1091.98 75.4601 1111.9 75.4601Z" stroke="#E5E5E5" stroke-width="5"/>
<path d="M1111.9 75.4601C1131.83 75.4601 1147.98 59.3065 1147.98 39.3801C1147.98 19.4536 1131.83 3.30005 1111.9 3.30005C1091.98 3.30005 1075.83 19.4536 1075.83 39.3801C1075.83 59.3065 1091.98 75.4601 1111.9 75.4601Z" stroke="url(#paint5_linear)" stroke-width="5"/>
<path d="M967.596 165.66C997.483 165.66 1021.71 141.43 1021.71 111.54C1021.71 81.6504 997.483 57.42 967.596 57.42C937.709 57.42 913.481 81.6504 913.481 111.54C913.481 141.43 937.709 165.66 967.596 165.66Z" fill="#F8F8F8" fill-opacity="0.6"/>
<path d="M967.596 165.66C997.483 165.66 1021.71 141.43 1021.71 111.54C1021.71 81.6504 997.483 57.42 967.596 57.42C937.709 57.42 913.481 81.6504 913.481 111.54C913.481 141.43 937.709 165.66 967.596 165.66Z" stroke="#E5E5E5" stroke-width="5"/>
<path d="M967.596 165.66C997.483 165.66 1021.71 141.43 1021.71 111.54C1021.71 81.6504 997.483 57.42 967.596 57.42C937.709 57.42 913.481 81.6504 913.481 111.54C913.481 141.43 937.709 165.66 967.596 165.66Z" stroke="url(#paint6_linear)" stroke-width="5"/>
<path d="M751.135 724.9C781.022 724.9 805.25 700.67 805.25 670.78C805.25 640.89 781.022 616.66 751.135 616.66C721.248 616.66 697.019 640.89 697.019 670.78C697.019 700.67 721.248 724.9 751.135 724.9Z" fill="#F8F8F8" fill-opacity="0.6"/>
<path d="M751.135 724.9C781.022 724.9 805.25 700.67 805.25 670.78C805.25 640.89 781.022 616.66 751.135 616.66C721.248 616.66 697.019 640.89 697.019 670.78C697.019 700.67 721.248 724.9 751.135 724.9Z" stroke="#E5E5E5" stroke-width="5"/>
<path d="M751.135 724.9C781.022 724.9 805.25 700.67 805.25 670.78C805.25 640.89 781.022 616.66 751.135 616.66C721.248 616.66 697.019 640.89 697.019 670.78C697.019 700.67 721.248 724.9 751.135 724.9Z" stroke="url(#paint7_linear)" stroke-width="5"/>
</g>
<defs>
<linearGradient id="paint0_linear" x1="967.596" y1="544.5" x2="967.596" y2="760.98" gradientUnits="userSpaceOnUse">
<stop stop-color="white"/>
<stop offset="1" stop-color="white" stop-opacity="0"/>
</linearGradient>
<linearGradient id="paint1_linear" x1="778.192" y1="364.1" x2="778.192" y2="526.46" gradientUnits="userSpaceOnUse">
<stop stop-color="white"/>
<stop offset="1" stop-color="white" stop-opacity="0"/>
</linearGradient>
<linearGradient id="paint2_linear" x1="967.596" y1="364.1" x2="967.596" y2="436.26" gradientUnits="userSpaceOnUse">
<stop stop-color="white"/>
<stop offset="1" stop-color="white" stop-opacity="0"/>
</linearGradient>
<linearGradient id="paint3_linear" x1="859.365" y1="219.78" x2="859.365" y2="291.94" gradientUnits="userSpaceOnUse">
<stop stop-color="white"/>
<stop offset="1" stop-color="white" stop-opacity="0"/>
</linearGradient>
<linearGradient id="paint4_linear" x1="1039.75" y1="201.74" x2="1039.75" y2="273.9" gradientUnits="userSpaceOnUse">
<stop stop-color="white"/>
<stop offset="1" stop-color="white" stop-opacity="0"/>
</linearGradient>
<linearGradient id="paint5_linear" x1="1111.9" y1="3.30005" x2="1111.9" y2="75.4601" gradientUnits="userSpaceOnUse">
<stop stop-color="white"/>
<stop offset="1" stop-color="white" stop-opacity="0"/>
</linearGradient>
<linearGradient id="paint6_linear" x1="967.596" y1="57.42" x2="967.596" y2="165.66" gradientUnits="userSpaceOnUse">
<stop stop-color="white"/>
<stop offset="1" stop-color="white" stop-opacity="0"/>
</linearGradient>
<linearGradient id="paint7_linear" x1="751.135" y1="616.66" x2="751.135" y2="724.9" gradientUnits="userSpaceOnUse">
<stop stop-color="white"/>
<stop offset="1" stop-color="white" stop-opacity="0"/>
</linearGradient>
<clipPath id="clip0">
<rect width="1800" height="1800" fill="white"/>
</clipPath>
</defs>
</svg>
