<svg width="486" height="135" viewBox="0 0 486 135" fill="none" xmlns="http://www.w3.org/2000/svg">
<g clip-path="url(#clip0)">
<rect width="486" height="135" fill="white"/>
<g opacity="0.8">
<path fill-rule="evenodd" clip-rule="evenodd" d="M198.406 42.1051C213.564 49.6172 223.909 64.6661 223.909 82.0061C223.909 106.856 202.663 127 176.455 127C150.246 127 129 106.856 129 82.0061C129 65.3192 138.581 50.7541 152.811 42.9857C153.349 33.8505 153.256 25.746 152.903 20.1394H200.709C195.839 20.1394 195.94 29.4218 198.406 42.1051Z" fill="#C4C4C4" fill-opacity="0.8"/>
<path d="M198.406 42.1051L197.915 42.2005L197.963 42.4433L198.184 42.5531L198.406 42.1051ZM152.811 42.9857L153.051 43.4246L153.294 43.2918L153.31 43.0151L152.811 42.9857ZM152.903 20.1394V19.6394H152.371L152.404 20.1708L152.903 20.1394ZM198.184 42.5531C213.188 49.9888 223.409 64.8736 223.409 82.0061H224.409C224.409 64.4586 213.94 49.2455 198.628 41.6571L198.184 42.5531ZM223.409 82.0061C223.409 106.555 202.412 126.5 176.455 126.5V127.5C202.914 127.5 224.409 107.156 224.409 82.0061H223.409ZM176.455 126.5C150.497 126.5 129.5 106.555 129.5 82.0061H128.5C128.5 107.156 149.995 127.5 176.455 127.5V126.5ZM129.5 82.0061C129.5 65.5187 138.966 51.1135 153.051 43.4246L152.571 42.5469C138.196 50.3946 128.5 65.1198 128.5 82.0061H129.5ZM153.31 43.0151C153.849 33.861 153.756 25.7361 153.402 20.108L152.404 20.1708C152.755 25.7559 152.849 33.84 152.312 42.9563L153.31 43.0151ZM152.903 20.6394H200.709V19.6394H152.903V20.6394ZM200.709 19.6394C199.293 19.6394 198.234 20.3321 197.518 21.5319C196.822 22.6996 196.447 24.3485 196.308 26.3309C196.028 30.3053 196.681 35.8501 197.915 42.2005L198.897 42.0097C197.666 35.6768 197.035 30.2387 197.305 26.4011C197.441 24.4775 197.8 23.0131 198.377 22.044C198.936 21.107 199.69 20.6394 200.709 20.6394V19.6394Z" fill="white"/>
<path d="M199.209 19.4364C199.209 19.9446 198.901 20.6675 197.792 21.5421C196.699 22.4033 195.025 23.2445 192.822 23.9787C188.432 25.442 182.273 26.3727 175.4 26.3727C168.527 26.3727 162.368 25.442 157.978 23.9787C155.775 23.2445 154.101 22.4033 153.008 21.5421C151.899 20.6675 151.591 19.9446 151.591 19.4364C151.591 18.9281 151.899 18.2052 153.008 17.3307C154.101 16.4694 155.775 15.6282 157.978 14.894C162.368 13.4308 168.527 12.5 175.4 12.5C182.273 12.5 188.432 13.4308 192.822 14.894C195.025 15.6282 196.699 16.4694 197.792 17.3307C198.901 18.2052 199.209 18.9281 199.209 19.4364Z" fill="#C4C4C4" stroke="#E5E5E5" stroke-width="3"/>
<path d="M129 11V10H128V11H129ZM223.909 11H224.909V10H223.909V11ZM223.909 127V128H224.909V127H223.909ZM129 127H128V128H129V127ZM129 12H223.909V10H129V12ZM222.909 11V127H224.909V11H222.909ZM223.909 126H129V128H223.909V126ZM130 127V11H128V127H130Z" fill="white"/>
</g>
<path d="M34.048 106C29.8667 106 26.012 105.183 22.484 103.55C18.956 101.917 16.1467 99.5973 14.056 96.592C11.9653 93.5867 10.92 90.124 10.92 86.204C10.92 81.8267 11.7367 77.7433 13.37 73.954C15.0033 70.0993 17.388 67.0287 20.524 64.742C23.7253 62.39 27.4493 61.214 31.696 61.214C36.1387 61.214 39.5033 62.6513 41.79 65.526C44.0767 68.3353 45.1547 71.896 45.024 76.208C45.024 80.0627 43.4887 83.0027 40.418 85.028C37.4127 87.0533 33.558 88.066 28.854 88.066C28.1353 88.066 27.0573 88.0007 25.62 87.87C23.268 87.6087 21.602 87.2493 20.622 86.792C19.642 86.3347 19.152 85.42 19.152 84.048C19.152 83.5907 19.2827 83.264 19.544 83.068C19.8053 82.8067 20.328 82.676 21.112 82.676C21.9613 82.676 23.464 82.872 25.62 83.264C27.7107 83.656 29.5727 83.852 31.206 83.852C37.2167 83.852 40.222 81.2387 40.222 76.012C40.222 72.876 39.634 70.3933 38.458 68.564C37.3473 66.7347 35.3547 65.82 32.48 65.82C29.344 65.82 26.5347 66.6693 24.052 68.368C21.5693 70.0013 19.642 72.1573 18.27 74.836C16.9633 77.5147 16.31 80.3567 16.31 83.362C16.31 88.5233 17.7473 92.77 20.622 96.102C23.4967 99.3687 27.9393 101.002 33.95 101.002C34.6687 101.002 35.8773 100.937 37.576 100.806C38.2947 100.741 39.1767 100.545 40.222 100.218C41.2673 99.8913 42.0187 99.6627 42.476 99.532C45.2853 98.552 47.3433 98.062 48.65 98.062C49.63 98.062 50.3813 98.3233 50.904 98.846C49.2707 101.329 46.8207 103.158 43.554 104.334C40.3527 105.445 37.184 106 34.048 106ZM118.45 106.098C117.47 106.098 116.882 105.837 116.686 105.314C116.49 104.726 116.392 103.844 116.392 102.668C116.457 102.211 116.49 101.688 116.49 101.1C116.49 100.447 116.522 99.9567 116.588 99.63C116.98 96.494 117.176 93.5213 117.176 90.712C117.176 84.5053 116.13 79.6707 114.04 76.208C111.949 72.68 108.65 70.916 104.142 70.916C101.659 70.916 99.1764 71.5367 96.6937 72.778C94.2764 74.0193 92.2837 75.5547 90.7157 77.384C89.2131 79.2133 88.4617 80.8793 88.4617 82.382C88.7884 84.2767 89.3764 86.596 90.2257 89.34C90.2911 89.6667 90.5524 90.6793 91.0097 92.378C91.5324 94.0767 91.7937 95.612 91.7937 96.984L91.8917 98.846C91.8917 99.8913 91.3691 100.414 90.3237 100.414C89.0171 100.414 87.9391 99.5647 87.0897 97.866C86.3057 96.1673 85.4237 93.5213 84.4437 89.928C83.4637 86.4 82.5164 83.4927 81.6017 81.206C80.6871 78.9193 79.4457 76.9593 77.8777 75.326C76.3097 73.6927 74.3171 72.876 71.8997 72.876C68.5677 72.876 65.9544 74.0193 64.0597 76.306C62.2304 78.5927 61.3157 81.402 61.3157 84.734C61.3157 86.9553 61.5117 89.8953 61.9037 93.554C62.2304 96.298 62.3937 98.65 62.3937 100.61C62.3937 101.786 62.2631 102.668 62.0017 103.256C61.7404 103.844 61.1197 104.138 60.1397 104.138C58.8331 104.138 57.9184 103.713 57.3957 102.864C56.8731 101.949 56.6117 100.577 56.6117 98.748C56.6117 95.1547 56.4157 90.81 56.0237 85.714C55.9584 85.0607 55.8277 83.3947 55.6317 80.716C55.4357 77.972 55.4031 75.228 55.5337 72.484L55.6317 69.25C56.0237 68.858 56.4811 68.662 57.0037 68.662C57.7224 68.662 58.3104 69.1193 58.7677 70.034C59.2904 70.8833 59.5517 72.19 59.5517 73.954C60.5317 72.2553 61.9691 70.72 63.8637 69.348C65.7584 67.976 67.7511 67.29 69.8417 67.29C73.4351 67.29 76.4077 68.0413 78.7597 69.544C81.1771 70.9813 83.3657 73.3333 85.3257 76.6C87.1551 73.268 89.8991 70.426 93.5577 68.074C97.2817 65.722 101.104 64.546 105.024 64.546C109.074 64.546 112.439 66.0813 115.118 69.152C117.862 72.2227 119.854 75.914 121.096 80.226C122.402 84.538 123.056 88.5233 123.056 92.182C123.056 95.4487 122.762 98.5847 122.174 101.59C121.651 104.595 120.41 106.098 118.45 106.098ZM249.218 106.098C245.363 106.098 241.868 105.249 238.732 103.55C235.661 101.786 233.244 99.3687 231.48 96.298C229.781 93.162 228.932 89.6013 228.932 85.616C228.932 79.0827 231.316 74.2153 236.086 71.014C240.92 67.8127 246.833 66.212 253.824 66.212C257.025 66.212 259.998 66.996 262.742 68.564C265.551 70.132 267.805 72.386 269.504 75.326C271.202 78.266 272.052 81.6633 272.052 85.518C272.052 89.6993 270.974 93.358 268.818 96.494C266.662 99.5647 263.82 101.949 260.292 103.648C256.829 105.281 253.138 106.098 249.218 106.098ZM248.14 100.512C254.216 100.512 258.822 99.14 261.958 96.396C265.094 93.652 266.662 89.634 266.662 84.342C266.662 80.7487 265.42 77.6453 262.938 75.032C260.52 72.4187 257.123 71.112 252.746 71.112C249.806 71.112 246.833 71.6673 243.828 72.778C240.822 73.8887 238.34 75.5547 236.38 77.776C234.42 79.9973 233.44 82.676 233.44 85.812C233.44 88.4253 234.093 90.8753 235.4 93.162C236.706 95.3833 238.47 97.18 240.692 98.552C242.978 99.8587 245.461 100.512 248.14 100.512ZM295.624 106C294.97 106.131 294.546 106.196 294.35 106.196C292.324 106.196 290.92 104.693 290.136 101.688C289.417 98.6827 289.058 94.4687 289.058 89.046C289.058 86.8247 289.123 83.362 289.254 78.658C289.384 75.7833 289.45 73.6273 289.45 72.19C281.414 72.19 277.396 71.2753 277.396 69.446C277.396 68.858 277.461 68.4007 277.592 68.074C277.788 67.7473 278.18 67.584 278.768 67.584L289.45 66.898C289.384 63.6967 289.221 60.2013 288.96 56.412C288.698 53.0147 288.535 49.8787 288.47 47.004C288.47 46.2853 288.764 45.7953 289.352 45.534C289.94 45.2073 290.56 45.044 291.214 45.044C291.998 45.044 292.651 45.4687 293.174 46.318C293.696 47.102 293.958 47.9187 293.958 48.768L294.644 66.702L302.778 67.094C304.019 66.9633 305.064 67.192 305.914 67.78C306.828 68.368 307.318 69.348 307.384 70.72C306.012 71.308 304.509 71.6673 302.876 71.798C301.242 71.9287 298.498 71.994 294.644 71.994C294.644 78.07 294.938 88.066 295.526 101.982C295.526 103.419 295.526 104.432 295.526 105.02C295.591 105.543 295.624 105.869 295.624 106ZM319.334 106.098C317.831 106.098 316.622 103.909 315.708 99.532C314.793 95.0893 314.205 91.2673 313.944 88.066C313.682 84.8647 313.323 79.8013 312.866 72.876C312.8 71.7653 312.768 70.328 312.768 68.564C312.768 66.3427 312.931 64.8073 313.258 63.958C313.65 63.1087 314.27 62.684 315.12 62.684C315.838 62.684 316.394 62.8473 316.786 63.174C317.243 63.4353 317.635 63.8927 317.962 64.546L317.864 68.466C317.864 72.6473 318.06 76.6 318.452 80.324C318.909 84.048 319.595 89.046 320.51 95.318C321.032 98.062 321.392 100.316 321.588 102.08C321.718 102.995 321.555 103.909 321.098 104.824C320.64 105.673 320.052 106.098 319.334 106.098ZM316.884 52.198C315.446 52.198 314.368 51.6427 313.65 50.532C312.996 49.4213 312.67 48.0493 312.67 46.416C312.67 45.6973 312.702 45.1747 312.768 44.848C312.702 43.8027 313.29 43.28 314.532 43.28C315.446 43.28 316.361 43.5087 317.276 43.966C318.256 44.358 318.55 44.652 318.158 44.848C318.811 46.5467 319.138 47.886 319.138 48.866C319.138 49.7153 318.942 50.4013 318.55 50.924C318.158 51.3813 317.602 51.806 316.884 52.198ZM350.663 106.098C346.808 106.098 343.313 105.249 340.177 103.55C337.106 101.786 334.689 99.3687 332.925 96.298C331.226 93.162 330.377 89.6013 330.377 85.616C330.377 79.0827 332.762 74.2153 337.531 71.014C342.366 67.8127 348.278 66.212 355.269 66.212C358.47 66.212 361.443 66.996 364.187 68.564C366.996 70.132 369.25 72.386 370.949 75.326C372.648 78.266 373.497 81.6633 373.497 85.518C373.497 89.6993 372.419 93.358 370.263 96.494C368.107 99.5647 365.265 101.949 361.737 103.648C358.274 105.281 354.583 106.098 350.663 106.098ZM349.585 100.512C355.661 100.512 360.267 99.14 363.403 96.396C366.539 93.652 368.107 89.634 368.107 84.342C368.107 80.7487 366.866 77.6453 364.383 75.032C361.966 72.4187 358.568 71.112 354.191 71.112C351.251 71.112 348.278 71.6673 345.273 72.778C342.268 73.8887 339.785 75.5547 337.825 77.776C335.865 79.9973 334.885 82.676 334.885 85.812C334.885 88.4253 335.538 90.8753 336.845 93.162C338.152 95.3833 339.916 97.18 342.137 98.552C344.424 99.8587 346.906 100.512 349.585 100.512ZM390.601 106.392C389.686 106.653 389.164 106.784 389.033 106.784C388.51 106.784 387.955 106.523 387.367 106C385.211 102.799 383.643 97.2127 382.663 89.242C381.748 81.2713 381.291 74.4113 381.291 68.662C381.291 67.7473 381.944 67.29 383.251 67.29C385.211 67.29 386.191 68.368 386.191 70.524C386.191 71.112 386.158 71.602 386.093 71.994C386.681 70.622 387.792 69.2173 389.425 67.78C391.058 66.3427 392.953 65.134 395.109 64.154C397.265 63.174 399.454 62.684 401.675 62.684C408.666 62.684 413.762 65.7873 416.963 71.994C420.164 78.1353 421.765 85.7793 421.765 94.926C421.765 98.062 421.438 100.577 420.785 102.472C420.132 104.301 419.25 105.216 418.139 105.216C416.963 105.216 416.375 104.857 416.375 104.138C416.832 100.675 417.061 97.278 417.061 93.946C417.061 85.518 415.591 79.148 412.651 74.836C409.711 70.4587 405.824 68.27 400.989 68.27C398.637 68.27 396.35 68.858 394.129 70.034C391.973 71.21 390.209 72.8433 388.837 74.934C387.53 77.0247 386.877 79.4093 386.877 82.088C386.877 85.0933 387.04 87.7067 387.367 89.928C387.694 92.1493 388.216 94.828 388.935 97.964C389.719 101.035 390.274 103.844 390.601 106.392ZM430.111 94.436C431.026 93.7173 431.908 93.358 432.757 93.358C433.541 93.358 434.293 93.5867 435.011 94.044C435.795 94.5013 436.579 95.0893 437.363 95.808C438.147 96.4613 438.768 96.9513 439.225 97.278C440.728 98.454 442.786 99.3687 445.399 100.022C448.013 100.675 450.789 101.002 453.729 101.002C457.061 101.002 460.034 100.381 462.647 99.14C465.326 97.8333 466.665 96.102 466.665 93.946C466.665 91.986 465.947 90.4507 464.509 89.34C463.072 88.164 461.341 87.3147 459.315 86.792C457.29 86.2693 454.611 85.7793 451.279 85.322C446.771 84.7993 443.178 84.146 440.499 83.362C437.886 82.578 435.795 81.304 434.227 79.54C432.659 77.7107 431.875 75.1627 431.875 71.896C431.875 68.368 433.541 65.7547 436.873 64.056C440.205 62.292 444.027 61.41 448.339 61.41C452.259 61.41 455.591 62.2593 458.335 63.958C461.145 65.5913 462.582 67.9433 462.647 71.014C462.778 72.778 462.517 74.1827 461.863 75.228C461.21 76.208 460.426 76.698 459.511 76.698C458.989 76.698 458.531 76.502 458.139 76.11C457.813 75.718 457.649 75.1953 457.649 74.542C457.649 73.4967 458.009 72.3533 458.727 71.112C458.401 69.544 457.323 68.368 455.493 67.584C453.729 66.8 451.606 66.408 449.123 66.408C445.465 66.408 442.557 67.094 440.401 68.466C438.245 69.7727 437.167 71.3407 437.167 73.17C437.167 75.13 437.951 76.6327 439.519 77.678C441.087 78.7233 442.982 79.4747 445.203 79.932C447.49 80.324 450.724 80.716 454.905 81.108C458.368 81.5653 461.177 82.1207 463.333 82.774C465.555 83.4273 467.417 84.7013 468.919 86.596C470.422 88.4253 471.173 91.0713 471.173 94.534C471.173 98.1273 469.507 100.969 466.175 103.06C462.843 105.085 458.858 106.098 454.219 106.098C448.274 106.098 442.949 105.085 438.245 103.06C433.607 101.035 430.895 98.16 430.111 94.436Z" fill="black"/>
<path d="M170.836 106.08C169.595 101.115 168.647 96.1167 167.994 91.086C167.341 85.99 166.753 77.6273 166.23 65.998C166.23 65.214 166.491 64.528 167.014 63.94C167.602 63.352 168.255 63.058 168.974 63.058H169.856C170.183 65.214 170.411 68.6767 170.542 73.446C170.542 73.9687 170.607 75.7327 170.738 78.738C170.869 81.678 171.195 84.4547 171.718 87.068C179.297 86.3493 185.34 84.8793 189.848 82.658C194.421 80.4367 196.708 77.268 196.708 73.152C196.708 67.9907 194.421 63.7767 189.848 60.51C185.275 57.2433 178.382 55.61 169.17 55.61C165.315 55.61 162.049 56.3287 159.37 57.766C158.913 57.962 158.586 58.3867 158.39 59.04C158.194 59.628 158.031 60.4773 157.9 61.588C157.769 62.764 157.606 63.646 157.41 64.234C157.214 64.822 156.855 65.116 156.332 65.116C155.744 65.116 155.352 64.6913 155.156 63.842C155.025 62.9273 154.96 60.8693 154.96 57.668C154.96 55.8387 156.201 54.4013 158.684 53.356C161.167 52.3107 164.368 51.788 168.288 51.788C179.721 51.788 188.215 53.5847 193.768 57.178C199.321 60.7713 202.098 66.292 202.098 73.74C202.098 77.7253 200.497 81.0573 197.296 83.736C194.095 86.4147 190.207 88.4073 185.634 89.714C181.061 90.9553 176.683 91.576 172.502 91.576C172.633 92.36 172.763 93.0787 172.894 93.732C173.025 94.3853 173.123 94.9407 173.188 95.398C174.103 99.8407 174.56 103.271 174.56 105.688C174.56 107.125 174.364 108.269 173.972 109.118C173.645 109.967 172.894 110.261 171.718 110L170.836 106.08Z" fill="black"/>
</g>
<defs>
<clipPath id="clip0">
<rect width="486" height="135" fill="white"/>
</clipPath>
</defs>
</svg>
