<svg width="117" height="117" viewBox="0 0 117 117" fill="none" xmlns="http://www.w3.org/2000/svg">
<rect width="117" height="117" fill="white"/>
<g opacity="0.8">
<path fill-rule="evenodd" clip-rule="evenodd" d="M80.4062 31.1051C95.5638 38.6172 105.909 53.6661 105.909 71.0061C105.909 95.8555 84.663 116 58.4545 116C32.2461 116 11 95.8555 11 71.0061C11 54.3192 20.5806 39.7541 34.8109 31.9857C35.349 22.8505 35.2559 14.746 34.903 9.1394H82.7091C77.8389 9.1394 77.9402 18.4218 80.4062 31.1051Z" fill="#C4C4C4" fill-opacity="0.8"/>
<path d="M80.4062 31.1051L79.9154 31.2005L79.9626 31.4433L80.1842 31.5531L80.4062 31.1051ZM34.8109 31.9857L35.0505 32.4246L35.2938 32.2918L35.3101 32.0151L34.8109 31.9857ZM34.903 9.1394V8.6394H34.3705L34.404 9.17081L34.903 9.1394ZM80.1842 31.5531C95.1878 38.9888 105.409 53.8736 105.409 71.0061H106.409C106.409 53.4586 95.9399 38.2455 80.6282 30.6571L80.1842 31.5531ZM105.409 71.0061C105.409 95.5546 84.4122 115.5 58.4545 115.5V116.5C84.9137 116.5 106.409 96.1564 106.409 71.0061H105.409ZM58.4545 115.5C32.4968 115.5 11.5 95.5546 11.5 71.0061H10.5C10.5 96.1564 31.9954 116.5 58.4545 116.5V115.5ZM11.5 71.0061C11.5 54.5187 20.9657 40.1135 35.0505 32.4246L34.5714 31.5469C20.1955 39.3946 10.5 54.1198 10.5 71.0061H11.5ZM35.3101 32.0151C35.8492 22.861 35.7562 14.7361 35.402 9.108L34.404 9.17081C34.7555 14.7559 34.8487 22.84 34.3118 31.9563L35.3101 32.0151ZM34.903 9.6394H82.7091V8.6394H34.903V9.6394ZM82.7091 8.6394C81.2935 8.6394 80.2336 9.33207 79.5184 10.5319C78.8224 11.6996 78.4475 13.3485 78.3078 15.3309C78.0278 19.3053 78.6807 24.8501 79.9154 31.2005L80.897 31.0097C79.6657 24.6768 79.035 19.2387 79.3053 15.4011C79.4409 13.4775 79.7997 12.0131 80.3774 11.044C80.9358 10.107 81.6896 9.6394 82.7091 9.6394V8.6394Z" fill="white"/>
<path d="M81.2091 8.43636C81.2091 8.94458 80.9015 9.66748 79.7917 10.5421C78.6989 11.4033 77.0246 12.2445 74.8219 12.9787C70.4322 14.442 64.2726 15.3727 57.4 15.3727C50.5275 15.3727 44.3678 14.442 39.9781 12.9787C37.7754 12.2445 36.1011 11.4033 35.0083 10.5421C33.8985 9.66748 33.5909 8.94458 33.5909 8.43636C33.5909 7.92814 33.8985 7.20525 35.0083 6.33067C36.1011 5.46941 37.7754 4.6282 39.9781 3.89398C44.3678 2.43076 50.5275 1.5 57.4 1.5C64.2726 1.5 70.4322 2.43076 74.8219 3.89398C77.0246 4.6282 78.6989 5.46941 79.7917 6.33067C80.9015 7.20525 81.2091 7.92814 81.2091 8.43636Z" fill="#C4C4C4" stroke="#E5E5E5" stroke-width="3"/>
<path d="M11 0V-1H10V0H11ZM105.909 0H106.909V-1H105.909V0ZM105.909 116V117H106.909V116H105.909ZM11 116H10V117H11V116ZM11 1H105.909V-1H11V1ZM104.909 0V116H106.909V0H104.909ZM105.909 115H11V117H105.909V115ZM12 116V0H10V116H12Z" fill="white"/>
</g>
<path d="M53.836 95.08C52.5947 90.1147 51.6473 85.1167 50.994 80.086C50.3407 74.99 49.7527 66.6273 49.23 54.998C49.23 54.214 49.4913 53.528 50.014 52.94C50.602 52.352 51.2553 52.058 51.974 52.058H52.856C53.1827 54.214 53.4113 57.6767 53.542 62.446C53.542 62.9687 53.6073 64.7327 53.738 67.738C53.8687 70.678 54.1953 73.4547 54.718 76.068C62.2967 75.3493 68.34 73.8793 72.848 71.658C77.4213 69.4367 79.708 66.268 79.708 62.152C79.708 56.9907 77.4213 52.7767 72.848 49.51C68.2747 46.2433 61.382 44.61 52.17 44.61C48.3153 44.61 45.0487 45.3287 42.37 46.766C41.9127 46.962 41.586 47.3867 41.39 48.04C41.194 48.628 41.0307 49.4773 40.9 50.588C40.7693 51.764 40.606 52.646 40.41 53.234C40.214 53.822 39.8547 54.116 39.332 54.116C38.744 54.116 38.352 53.6913 38.156 52.842C38.0253 51.9273 37.96 49.8693 37.96 46.668C37.96 44.8387 39.2013 43.4013 41.684 42.356C44.1667 41.3107 47.368 40.788 51.288 40.788C62.7213 40.788 71.2147 42.5847 76.768 46.178C82.3213 49.7713 85.098 55.292 85.098 62.74C85.098 66.7253 83.4973 70.0573 80.296 72.736C77.0947 75.4147 73.2073 77.4073 68.634 78.714C64.0607 79.9553 59.6833 80.576 55.502 80.576C55.6327 81.36 55.7633 82.0787 55.894 82.732C56.0247 83.3853 56.1227 83.9407 56.188 84.398C57.1027 88.8407 57.56 92.2707 57.56 94.688C57.56 96.1253 57.364 97.2687 56.972 98.118C56.6453 98.9673 55.894 99.2613 54.718 99L53.836 95.08Z" fill="black"/>
</svg>
